<svg xmlns="http://www.w3.org/2000/svg" version="1.1" xmlns:xlink="http://www.w3.org/1999/xlink" xmlns:svgjs="http://svgjs.dev/svgjs" width="2000" height="409" viewBox="0 0 2000 409"><g transform="matrix(1,0,0,1,-1.2074734098787303,0.9429686119250107)"><svg viewBox="0 0 396 81" data-background-color="#ffffff" preserveAspectRatio="xMidYMid meet" height="409" width="2000" xmlns="http://www.w3.org/2000/svg" xmlns:xlink="http://www.w3.org/1999/xlink"><g id="tight-bounds" transform="matrix(1,0,0,1,0.24092026484407825,-0.1867492850022643)"><svg viewBox="0 0 395.52 81.37349857000451" height="81.37349857000451" width="395.52"><g><svg viewBox="0 0 522.5958609146803 107.51783358826613" height="81.37349857000451" width="395.52"><g transform="matrix(1,0,0,1,127.07586091468038,14.859555872184401)"><svg viewBox="0 0 395.52 77.79872184389733" height="77.79872184389733" width="395.52"><g id="textblocktransform"><svg viewBox="0 0 395.52 77.79872184389733" height="77.79872184389733" width="395.52" id="textblock"><g><svg viewBox="0 0 395.52 77.79872184389733" height="77.79872184389733" width="395.52"><g transform="matrix(1,0,0,1,0,0)"><svg width="395.52" viewBox="0.25 -36.3 190.89 37.55" height="77.79872184389733" data-palette-color="#877eff"><path d="M22.8 1.25L22.8 1.25Q20.05 1.25 17.45-0.13 14.85-1.5 12.45-4.9L12.45-4.9Q9.9-2.2 6.3 0.3L6.3 0.3Q4.6 0.3 3.08-1.05 1.55-2.4 0.25-5.85L0.25-5.85Q0.5-5.85 0.78-5.98 1.05-6.1 1.85-6.7L1.85-6.7Q4.85-8.9 7.13-11.43 9.4-13.95 10.98-16.18 12.55-18.4 13.45-19.75L13.45-19.75Q14.85-21.85 15.65-23.08 16.45-24.3 16.95-25.05 17.45-25.8 17.85-26.4L17.85-26.4Q16.7-27.45 15.5-27.93 14.3-28.4 13.25-28.4L13.25-28.4Q11.7-28.4 10.6-27.45 9.5-26.5 9.5-24.9L9.5-24.9Q9.5-23.4 10.65-21.65L10.65-21.65Q8-21.65 6.35-22.55 4.7-23.45 3.95-24.9 3.2-26.35 3.2-28L3.2-28Q3.2-29.95 4.15-31.8 5.1-33.65 6.78-34.85 8.45-36.05 10.7-36.05L10.7-36.05Q12.8-36.05 15.3-34.68 17.8-33.3 20.5-30L20.5-30Q22-31.9 23.73-33.52 25.45-35.15 27.55-36.3L27.55-36.3Q30.4-35.65 31.6-33.63 32.8-31.6 32.8-29.3L32.8-29.3Q32.8-28.9 32.77-28.53 32.75-28.15 32.7-27.75L32.7-27.75Q32.65-27.8 32.58-27.8 32.5-27.8 32.5-27.8L32.5-27.8Q32.05-27.8 31.2-27.4L31.2-27.4Q28.35-26.05 26.43-24.25 24.5-22.45 23.3-20.73 22.1-19 21.35-17.75L21.35-17.75Q19.85-15.2 18.78-13.43 17.7-11.65 16.82-10.3 15.95-8.95 15-7.7L15-7.7Q16.3-6.45 17.57-5.9 18.85-5.35 19.95-5.35L19.95-5.35Q21.85-5.35 23.08-6.63 24.3-7.9 24.3-9.6L24.3-9.6Q24.3-10.6 23.8-11.65 23.3-12.7 22.2-13.55L22.2-13.55Q23.1-14.1 24.45-14.38 25.8-14.65 26.6-14.65L26.6-14.65Q28.35-14.65 29.53-13.7 30.7-12.75 31.33-11.2 31.95-9.65 31.95-7.85L31.95-7.85Q31.95-5.7 30.98-3.6 30-1.5 28-0.13 26 1.25 22.8 1.25ZM46.05 0.35L46.05 0.35Q42.4 0.35 40-1.13 37.6-2.6 36.4-5.03 35.2-7.45 35.2-10.25L35.2-10.25Q35.2-12.9 36.22-15.58 37.25-18.25 39.22-20.45 41.2-22.65 44.02-24 46.85-25.35 50.4-25.35L50.4-25.35Q54.8-25.35 56.82-23.38 58.85-21.4 58.85-18.6L58.85-18.6Q58.85-16.2 57.57-14.18 56.3-12.15 54.2-10.93 52.1-9.7 49.6-9.7L49.6-9.7Q48.3-9.7 46.95-10.1 45.6-10.5 44.3-11.35L44.3-11.35Q44.55-8.25 46.1-6.85 47.65-5.45 49.8-5.45L49.8-5.45Q51.3-5.45 52.8-6.03 54.3-6.6 55.57-7.53 56.85-8.45 57.55-9.5L57.55-9.5 57.9-9.25Q57.9-6.65 56.82-4.83 55.75-3 54-1.85 52.25-0.7 50.17-0.18 48.1 0.35 46.05 0.35ZM47.2-13.15L47.2-13.15Q48.8-13.15 49.8-14.08 50.8-15 51.3-16.25 51.8-17.5 51.8-18.45L51.8-18.45Q51.8-19.6 51.15-20.38 50.5-21.15 49.35-21.15L49.35-21.15Q48.45-21.15 47.37-20.5 46.3-19.85 45.45-18.28 44.6-16.7 44.35-13.9L44.35-13.9Q45.95-13.15 47.2-13.15ZM67.2 0.15L67.2 0.15Q65.35 0.15 63.85-1.33 62.35-2.8 62.35-5.45L62.35-5.45Q62.35-6.75 62.7-8.4 63.05-10.05 63.47-11.75 63.9-13.45 64.25-14.95 64.6-16.45 64.6-17.4L64.6-17.4Q64.6-18.4 64.2-18.98 63.8-19.55 63.15-19.55L63.15-19.55Q62.3-19.55 61.3-18.55L61.3-18.55 61-18.75Q60.95-19.55 61.35-20.65 61.75-21.75 62.57-22.78 63.4-23.8 64.7-24.5 66-25.2 67.8-25.2L67.8-25.2Q70.45-25.2 71.72-23.68 73-22.15 73-19.95L73-19.95Q73-19.15 72.85-18.4L72.85-18.4Q73.9-19.95 75.45-21.53 77-23.1 78.87-24.15 80.75-25.2 82.75-25.2L82.75-25.2Q85.1-25.2 85.95-23.7 86.8-22.2 86.8-19.95L86.8-19.95Q86.8-17.85 86.35-15.45 85.9-13.05 85.45-10.83 85-8.6 85-7.1L85-7.1Q85-5.1 86.15-5.1L86.15-5.1Q86.75-5.1 87.2-5.48 87.65-5.85 87.8-6.2L87.8-6.2 88.15-6.05Q88.15-4.2 87.12-2.8 86.1-1.4 84.55-0.63 83 0.15 81.4 0.15L81.4 0.15Q79.45 0.15 77.95-1.2 76.45-2.55 76.45-5.6L76.45-5.6Q76.45-7.4 76.92-9.5 77.4-11.6 77.85-13.55 78.3-15.5 78.3-16.75L78.3-16.75Q78.3-17.5 78.02-17.93 77.75-18.35 77.05-18.35L77.05-18.35Q75.9-18.35 74.52-17.3 73.15-16.25 72.17-14.5 71.2-12.75 71.2-10.65L71.2-10.65Q71.2-9.3 71.52-8.05 71.85-6.8 71.85-5.35L71.85-5.35Q71.85-2.65 70.45-1.25 69.05 0.15 67.2 0.15ZM112.09 1.25L112.09 1.25Q109.34 1.25 106.74-0.13 104.14-1.5 101.74-4.9L101.74-4.9Q99.19-2.2 95.59 0.3L95.59 0.3Q93.89 0.3 92.37-1.05 90.84-2.4 89.54-5.85L89.54-5.85Q89.79-5.85 90.07-5.98 90.34-6.1 91.14-6.7L91.14-6.7Q94.14-8.9 96.42-11.43 98.69-13.95 100.27-16.18 101.84-18.4 102.74-19.75L102.74-19.75Q104.14-21.85 104.94-23.08 105.74-24.3 106.24-25.05 106.74-25.8 107.14-26.4L107.14-26.4Q105.99-27.45 104.79-27.93 103.59-28.4 102.54-28.4L102.54-28.4Q100.99-28.4 99.89-27.45 98.79-26.5 98.79-24.9L98.79-24.9Q98.79-23.4 99.94-21.65L99.94-21.65Q97.29-21.65 95.64-22.55 93.99-23.45 93.24-24.9 92.49-26.35 92.49-28L92.49-28Q92.49-29.95 93.44-31.8 94.39-33.65 96.07-34.85 97.74-36.05 99.99-36.05L99.99-36.05Q102.09-36.05 104.59-34.68 107.09-33.3 109.79-30L109.79-30Q111.29-31.9 113.02-33.52 114.74-35.15 116.84-36.3L116.84-36.3Q119.69-35.65 120.89-33.63 122.09-31.6 122.09-29.3L122.09-29.3Q122.09-28.9 122.07-28.53 122.04-28.15 121.99-27.75L121.99-27.75Q121.94-27.8 121.87-27.8 121.79-27.8 121.79-27.8L121.79-27.8Q121.34-27.8 120.49-27.4L120.49-27.4Q117.64-26.05 115.72-24.25 113.79-22.45 112.59-20.73 111.39-19 110.64-17.75L110.64-17.75Q109.14-15.2 108.07-13.43 106.99-11.65 106.12-10.3 105.24-8.95 104.29-7.7L104.29-7.7Q105.59-6.45 106.87-5.9 108.14-5.35 109.24-5.35L109.24-5.35Q111.14-5.35 112.37-6.63 113.59-7.9 113.59-9.6L113.59-9.6Q113.59-10.6 113.09-11.65 112.59-12.7 111.49-13.55L111.49-13.55Q112.39-14.1 113.74-14.38 115.09-14.65 115.89-14.65L115.89-14.65Q117.64-14.65 118.82-13.7 119.99-12.75 120.62-11.2 121.24-9.65 121.24-7.85L121.24-7.85Q121.24-5.7 120.27-3.6 119.29-1.5 117.29-0.13 115.29 1.25 112.09 1.25ZM135.34 0.35L135.34 0.35Q131.69 0.35 129.29-1.13 126.89-2.6 125.69-5.03 124.49-7.45 124.49-10.25L124.49-10.25Q124.49-12.9 125.52-15.58 126.54-18.25 128.52-20.45 130.49-22.65 133.32-24 136.14-25.35 139.69-25.35L139.69-25.35Q144.09-25.35 146.12-23.38 148.14-21.4 148.14-18.6L148.14-18.6Q148.14-16.2 146.87-14.18 145.59-12.15 143.49-10.93 141.39-9.7 138.89-9.7L138.89-9.7Q137.59-9.7 136.24-10.1 134.89-10.5 133.59-11.35L133.59-11.35Q133.84-8.25 135.39-6.85 136.94-5.45 139.09-5.45L139.09-5.45Q140.59-5.45 142.09-6.03 143.59-6.6 144.87-7.53 146.14-8.45 146.84-9.5L146.84-9.5 147.19-9.25Q147.19-6.65 146.12-4.83 145.04-3 143.29-1.85 141.54-0.7 139.47-0.18 137.39 0.35 135.34 0.35ZM136.49-13.15L136.49-13.15Q138.09-13.15 139.09-14.08 140.09-15 140.59-16.25 141.09-17.5 141.09-18.45L141.09-18.45Q141.09-19.6 140.44-20.38 139.79-21.15 138.64-21.15L138.64-21.15Q137.74-21.15 136.67-20.5 135.59-19.85 134.74-18.28 133.89-16.7 133.64-13.9L133.64-13.9Q135.24-13.15 136.49-13.15ZM159.14 0.45L159.14 0.45Q156.04 0.45 153.99-0.4 151.94-1.25 150.94-2.58 149.94-3.9 149.94-5.25L149.94-5.25Q149.94-7.15 151.64-8.63 153.34-10.1 156.24-10.1L156.24-10.1Q156.24-7.55 156.89-6.03 157.54-4.5 158.56-3.85 159.59-3.2 160.54-3.2L160.54-3.2Q161.69-3.2 162.46-3.88 163.24-4.55 163.24-5.55L163.24-5.55Q163.24-6.95 161.79-8 160.34-9.05 158.04-10.35L158.04-10.35Q156.89-11.05 155.54-11.98 154.19-12.9 153.24-14.23 152.29-15.55 152.29-17.4L152.29-17.4Q152.29-19.35 153.41-20.85 154.54-22.35 156.39-23.38 158.24-24.4 160.39-24.93 162.54-25.45 164.59-25.45L164.59-25.45Q168.44-25.45 170.39-23.9 172.34-22.35 172.34-20.6L172.34-20.6Q172.34-19.1 170.84-17.9 169.34-16.7 166.24-16.7L166.24-16.7Q166.29-19.25 165.19-20.43 164.09-21.6 162.84-21.6L162.84-21.6Q161.94-21.6 161.34-21.05 160.74-20.5 160.74-19.45L160.74-19.45Q160.74-18.25 161.51-17.38 162.29-16.5 163.46-15.83 164.64-15.15 165.89-14.55L165.89-14.55Q167.59-13.75 169.09-12.85 170.59-11.95 171.54-10.8 172.49-9.65 172.49-8L172.49-8Q172.49-5.75 170.66-3.83 168.84-1.9 165.79-0.73 162.74 0.45 159.14 0.45ZM182.49 0.2L182.49 0.2Q180.89 0.2 179.46-0.53 178.04-1.25 177.16-2.8 176.29-4.35 176.29-6.75L176.29-6.75Q176.29-8.05 176.54-10.15 176.79-12.25 177.21-14.75 177.64-17.25 178.09-19.75L178.09-19.75Q177.09-19.7 176.16-19.55 175.24-19.4 174.34-19.2L174.34-19.2 174.24-19.55Q175.24-20.75 176.34-21.6 177.44-22.45 178.64-23L178.64-23Q179.29-26.3 179.74-28.73 180.19-31.15 180.19-31.6L180.19-31.6Q180.19-32.45 181.51-33 182.84-33.55 184.49-33.55L184.49-33.55Q185.94-33.55 187.21-33 188.49-32.45 188.94-31.15L188.94-31.15Q188.64-30.85 188.09-28.93 187.54-27 186.94-24.25L186.94-24.25Q187.89-24.2 188.89-24.15 189.89-24.1 190.94-24L190.94-24Q191.04-23.7 191.09-23.35 191.14-23 191.14-22.6L191.14-22.6Q191.14-21.85 190.91-20.98 190.69-20.1 190.39-19.4L190.39-19.4Q189.19-19.5 188.14-19.63 187.09-19.75 186.09-19.8L186.09-19.8Q185.69-17.65 185.36-15.5 185.04-13.35 184.86-11.6 184.69-9.85 184.69-8.85L184.69-8.85Q184.69-6.75 185.46-6.05 186.24-5.35 187.34-5.35L187.34-5.35Q188.34-5.35 189.14-5.75 189.94-6.15 190.29-6.7L190.29-6.7 190.79-6.55Q190.49-4.5 189.19-2.98 187.89-1.45 186.09-0.63 184.29 0.2 182.49 0.2Z" opacity="1" transform="matrix(1,0,0,1,0,0)" fill="#877eff" class="wordmark-text-0" data-fill-palette-color="primary" id="text-0"></path></svg></g></svg></g></svg></g></svg></g><g><svg viewBox="0 0 108.70944985666047 107.51783358826613" height="107.51783358826613" width="108.70944985666047"><g><svg xmlns="http://www.w3.org/2000/svg" xmlns:xlink="http://www.w3.org/1999/xlink" version="1.1" x="0" y="0" viewBox="5.393 5.643000000000001 89.40400000000001 88.424" enable-background="new 0 0 100 100" xml:space="preserve" height="107.51783358826613" width="108.70944985666047" class="icon-icon-0" data-fill-palette-color="accent" id="icon-0"><circle cx="35.148" cy="24.359" r="2.2" fill="#ffa500" data-fill-palette-color="accent"></circle><circle cx="35.148" cy="74.709" r="2.2" fill="#ffa500" data-fill-palette-color="accent"></circle><circle cx="26.119" cy="64.762" r="1.9" fill="#ffa500" data-fill-palette-color="accent"></circle><circle cx="74.02" cy="18.391" r="1.9" fill="#ffa500" data-fill-palette-color="accent"></circle><circle cx="65.908" cy="80.83" r="1.9" fill="#ffa500" data-fill-palette-color="accent"></circle><circle cx="38.209" cy="84.35" r="1.9" fill="#ffa500" data-fill-palette-color="accent"></circle><circle cx="19.538" cy="35.991" r="1.9" fill="#ffa500" data-fill-palette-color="accent"></circle><circle cx="22.445" cy="54.049" r="1.9" fill="#ffa500" data-fill-palette-color="accent"></circle><circle cx="78.917" cy="47.315" r="1.9" fill="#ffa500" data-fill-palette-color="accent"></circle><circle cx="54.89" cy="78.381" r="1.9" fill="#ffa500" data-fill-palette-color="accent"></circle><circle cx="51.676" cy="21.758" r="1.9" fill="#ffa500" data-fill-palette-color="accent"></circle><circle cx="17.089" cy="51.753" r="2.2" fill="#ffa500" data-fill-palette-color="accent"></circle><circle cx="75.703" cy="64.455" r="2.2" fill="#ffa500" data-fill-palette-color="accent"></circle><circle cx="29.103" cy="23.211" r="1.7" fill="#ffa500" data-fill-palette-color="accent"></circle><circle cx="78.075" cy="42.8" r="1.4" fill="#ffa500" data-fill-palette-color="accent"></circle><circle cx="80.217" cy="74.326" r="1.4" fill="#ffa500" data-fill-palette-color="accent"></circle><circle cx="34.612" cy="80.142" r="1.4" fill="#ffa500" data-fill-palette-color="accent"></circle><circle cx="21.298" cy="63.308" r="1.4" fill="#ffa500" data-fill-palette-color="accent"></circle><circle cx="49.457" cy="16.325" r="1.4" fill="#ffa500" data-fill-palette-color="accent"></circle><circle cx="71.801" cy="23.211" r="1.7" fill="#ffa500" data-fill-palette-color="accent"></circle><circle cx="21.91" cy="49.228" r="1.7" fill="#ffa500" data-fill-palette-color="accent"></circle><circle cx="42.417" cy="78.917" r="3.5" fill="#ffa500" data-fill-palette-color="accent"></circle><circle cx="65.22" cy="24.283" r="3.5" fill="#ffa500" data-fill-palette-color="accent"></circle><circle cx="24.359" cy="68.664" r="1.2" fill="#ffa500" data-fill-palette-color="accent"></circle><circle cx="62.006" cy="82.284" r="1.2" fill="#ffa500" data-fill-palette-color="accent"></circle><circle cx="84.809" cy="63.919" r="1.2" fill="#ffa500" data-fill-palette-color="accent"></circle><circle cx="85.268" cy="31.628" r="1.2" fill="#ffa500" data-fill-palette-color="accent"></circle><circle cx="65.373" cy="18.467" r="1.2" fill="#ffa500" data-fill-palette-color="accent"></circle><circle cx="52.824" cy="17.549" r="1.2" fill="#ffa500" data-fill-palette-color="accent"></circle><circle cx="28.338" cy="30.557" r="1.2" fill="#ffa500" data-fill-palette-color="accent"></circle><circle cx="33.846" cy="83.814" r="1.2" fill="#ffa500" data-fill-palette-color="accent"></circle><circle cx="6.311" cy="32.547" r="0.92" fill="#ffa500" data-fill-palette-color="accent"></circle><circle cx="94.144" cy="56.88" r="0.65" fill="#ffa500" data-fill-palette-color="accent"></circle><circle cx="19.921" cy="6.296" r="0.65" fill="#ffa500" data-fill-palette-color="accent"></circle><circle cx="19.156" cy="91.313" r="0.65" fill="#ffa500" data-fill-palette-color="accent"></circle><circle cx="56.037" cy="81.825" r="0.65" fill="#ffa500" data-fill-palette-color="accent"></circle><circle cx="82.36" cy="53.166" r="0.65" fill="#ffa500" data-fill-palette-color="accent"></circle><circle cx="56.803" cy="12.305" r="0.65" fill="#ffa500" data-fill-palette-color="accent"></circle><circle cx="15.33" cy="56.38" r="0.65" fill="#ffa500" data-fill-palette-color="accent"></circle><circle cx="30.94" cy="74.744" r="0.65" fill="#ffa500" data-fill-palette-color="accent"></circle><circle cx="68.587" cy="91.926" r="0.65" fill="#ffa500" data-fill-palette-color="accent"></circle><circle cx="52.211" cy="14.03" r="0.92" fill="#ffa500" data-fill-palette-color="accent"></circle><circle cx="89.553" cy="69.888" r="0.92" fill="#ffa500" data-fill-palette-color="accent"></circle><circle cx="24.818" cy="71.878" r="0.92" fill="#ffa500" data-fill-palette-color="accent"></circle><circle cx="21.145" cy="31.628" r="0.92" fill="#ffa500" data-fill-palette-color="accent"></circle><circle cx="56.037" cy="17.702" r="0.92" fill="#ffa500" data-fill-palette-color="accent"></circle><circle cx="78.075" cy="52.136" r="0.92" fill="#ffa500" data-fill-palette-color="accent"></circle><circle cx="25.889" cy="77.233" r="0.92" fill="#ffa500" data-fill-palette-color="accent"></circle><circle cx="72.336" cy="30.021" r="3.0" fill="#ffa500" data-fill-palette-color="accent"></circle><circle cx="33.77" cy="14.871" r="1.6" fill="#ffa500" data-fill-palette-color="accent"></circle><circle cx="15.712" cy="34.459" r="1.1" fill="#ffa500" data-fill-palette-color="accent"></circle><circle cx="66.368" cy="87.411" r="1.1" fill="#ffa500" data-fill-palette-color="accent"></circle><circle cx="31.399" cy="27.803" r="1.6" fill="#ffa500" data-fill-palette-color="accent"></circle><circle cx="80.677" cy="63.919" r="1.6" fill="#ffa500" data-fill-palette-color="accent"></circle><circle cx="11.657" cy="55.196" r="1.6" fill="#ffa500" data-fill-palette-color="accent"></circle><circle cx="84.503" cy="38.056" r="1.1" fill="#ffa500" data-fill-palette-color="accent"></circle><circle cx="74.555" cy="34.842" r="1.1" fill="#ffa500" data-fill-palette-color="accent"></circle><circle cx="83.125" cy="67.286" r="1.1" fill="#ffa500" data-fill-palette-color="accent"></circle><circle cx="46.09" cy="89.323" r="1.1" fill="#ffa500" data-fill-palette-color="accent"></circle><circle cx="18.696" cy="56.114" r="1.1" fill="#ffa500" data-fill-palette-color="accent"></circle><circle cx="28.644" cy="18.62" r="1.1" fill="#ffa500" data-fill-palette-color="accent"></circle><circle cx="41.652" cy="12.346" r="1.1" fill="#ffa500" data-fill-palette-color="accent"></circle><circle cx="76.544" cy="38.668" r="1.6" fill="#ffa500" data-fill-palette-color="accent"></circle><circle cx="46.702" cy="21.987" r="1.6" fill="#ffa500" data-fill-palette-color="accent"></circle><circle cx="16.401" cy="74.785" r="1.1" fill="#ffa500" data-fill-palette-color="accent"></circle><circle cx="25.047" cy="34.613" r="2.5" fill="#ffa500" data-fill-palette-color="accent"></circle><circle cx="32.776" cy="19.539" r="1.8" fill="#ffa500" data-fill-palette-color="accent"></circle><circle cx="52.211" cy="82.743" r="1.8" fill="#ffa500" data-fill-palette-color="accent"></circle><circle cx="15.329" cy="44.178" r="1.8" fill="#ffa500" data-fill-palette-color="accent"></circle><circle cx="80.064" cy="35.761" r="1.8" fill="#ffa500" data-fill-palette-color="accent"></circle><circle cx="61.011" cy="77.311" r="2.5" fill="#ffa500" data-fill-palette-color="accent"></circle><circle cx="57.797" cy="22.216" r="2.5" fill="#ffa500" data-fill-palette-color="accent"></circle><circle cx="29.333" cy="70.117" r="3.0" fill="#ffa500" data-fill-palette-color="accent"></circle><circle cx="79.376" cy="57.874" r="3.0" fill="#ffa500" data-fill-palette-color="accent"></circle><circle cx="68.586" cy="74.633" r="3.5" fill="#ffa500" data-fill-palette-color="accent"></circle><circle cx="21.451" cy="42.342" r="3.5" fill="#ffa500" data-fill-palette-color="accent"></circle><circle cx="62.924" cy="13.417" r="1.5" fill="#ffa500" data-fill-palette-color="accent"></circle><circle cx="49.151" cy="78.764" r="1.5" fill="#ffa500" data-fill-palette-color="accent"></circle><circle cx="14.105" cy="21.069" r="1.5" fill="#ffa500" data-fill-palette-color="accent"></circle><circle cx="38.132" cy="92.537" r="1.5" fill="#ffa500" data-fill-palette-color="accent"></circle><circle cx="79.682" cy="40.045" r="0.84" fill="#ffa500" data-fill-palette-color="accent"></circle><circle cx="75.55" cy="25.507" r="0.84" fill="#ffa500" data-fill-palette-color="accent"></circle><circle cx="79.299" cy="68.052" r="1.7" fill="#ffa500" data-fill-palette-color="accent"></circle><circle cx="83.048" cy="70.348" r="0.84" fill="#ffa500" data-fill-palette-color="accent"></circle><circle cx="88.94" cy="49.84" r="0.84" fill="#ffa500" data-fill-palette-color="accent"></circle><circle cx="83.431" cy="60.4" r="0.84" fill="#ffa500" data-fill-palette-color="accent"></circle><circle cx="27.19" cy="26.731" r="0.84" fill="#ffa500" data-fill-palette-color="accent"></circle><circle cx="46.779" cy="7.989" r="0.84" fill="#ffa500" data-fill-palette-color="accent"></circle><circle cx="31.705" cy="77.692" r="0.84" fill="#ffa500" data-fill-palette-color="accent"></circle><circle cx="43.381" cy="85.977" r="2.2" fill="#ffa500" data-fill-palette-color="accent"></circle><circle cx="47.647" cy="82.57" r="1.4" fill="#ffa500" data-fill-palette-color="accent"></circle><circle cx="47.921" cy="86.361" r="0.84" fill="#ffa500" data-fill-palette-color="accent"></circle><circle cx="68.739" cy="88.252" r="0.84" fill="#ffa500" data-fill-palette-color="accent"></circle><circle cx="18.237" cy="47.238" r="0.84" fill="#ffa500" data-fill-palette-color="accent"></circle><circle cx="79.452" cy="12.958" r="1.7" fill="#ffa500" data-fill-palette-color="accent"></circle><circle cx="69.199" cy="18.927" r="1.6" fill="#ffa500" data-fill-palette-color="accent"></circle><circle cx="75.779" cy="10.969" r="0.84" fill="#ffa500" data-fill-palette-color="accent"></circle><circle cx="50.528" cy="50.008" r="23" fill="#ffa500" data-fill-palette-color="accent"></circle></svg></g></svg></g></svg></g><defs></defs></svg><rect width="395.52" height="81.37349857000451" fill="none" stroke="none" visibility="hidden"></rect></g></svg></g></svg>